<svg width="100%" viewBox="0 0 720 900" role="img" xmlns="http://www.w3.org/2000/svg">
<title>11Mkeys IA Lab — Arquitectura v3 con Monkey Advisor</title>
<defs>
  <marker id="arrow" viewBox="0 0 10 10" refX="8" refY="5" markerWidth="6" markerHeight="6" orient="auto-start-reverse">
    <path d="M2 1L8 5L2 9" fill="none" stroke="context-stroke" stroke-width="1.5" stroke-linecap="round" stroke-linejoin="round"/>
  </marker>
</defs>
<style>
  text { font-family: sans-serif; }
  .th { font-size: 13px; font-weight: 600; }
  .ts { font-size: 11px; font-weight: 400; }
  .arr { stroke: #aaa; stroke-width: 1.4; fill: none; }
  .c-purple rect { fill: #EEEDFE; stroke: #534AB7; stroke-width: 0.7; }
  .c-purple .th { fill: #3C3489; }
  .c-purple .ts { fill: #534AB7; }
  .c-blue rect { fill: #E6F1FB; stroke: #185FA5; stroke-width: 0.7; }
  .c-blue .th { fill: #0C447C; }
  .c-blue .ts { fill: #185FA5; }
  .c-amber rect { fill: #FAEEDA; stroke: #854F0B; stroke-width: 0.7; }
  .c-amber .th { fill: #633806; }
  .c-amber .ts { fill: #854F0B; }
  .c-teal rect { fill: #E1F5EE; stroke: #0F6E56; stroke-width: 0.7; }
  .c-teal .th { fill: #085041; }
  .c-teal .ts { fill: #0F6E56; }
  .c-coral rect { fill: #FAECE7; stroke: #993C1D; stroke-width: 0.7; }
  .c-coral .th { fill: #712B13; }
  .c-coral .ts { fill: #993C1D; }
  .c-green rect { fill: #EAF3DE; stroke: #3B6D11; stroke-width: 0.7; }
  .c-green .th { fill: #27500A; }
  .c-green .ts { fill: #3B6D11; }
  .c-pink rect { fill: #FBEAF0; stroke: #993556; stroke-width: 0.7; }
  .c-pink .th { fill: #72243E; }
  .c-pink .ts { fill: #993556; }
  .c-gray rect { fill: #F1EFE8; stroke: #888; stroke-width: 0.7; }
  .c-gray .th { fill: #2C2C2A; }
  .c-gray .ts { fill: #5F5E5A; }
  .c-gold rect { fill: #FFF8E6; stroke: #A07800; stroke-width: 1.2; }
  .c-gold .th { fill: #6B5000; }
  .c-gold .ts { fill: #A07800; }
</style>

<!-- TIER 0 -->
<g class="c-purple">
  <rect x="40" y="24" width="636" height="74" rx="12"/>
  <text class="th" x="358" y="48" text-anchor="middle">Tier 0 — Marce (director)</text>
  <text class="ts" x="358" y="64" text-anchor="middle">Decisiones de gate · aprobación de ideas · define fuentes para Watcher</text>
</g>
<!-- Bots badge row -->
<g class="c-teal">
  <rect x="100" y="76" width="150" height="20" rx="10"/>
  <text class="ts" x="175" y="90" text-anchor="middle">Telegram · Code Agent bot</text>
</g>
<g class="c-gold">
  <rect x="266" y="76" width="168" height="20" rx="10"/>
  <text class="ts" x="350" y="90" text-anchor="middle" fill="#6B5000">Telegram · Monkey Advisor bot 🐒</text>
</g>
<g class="c-teal">
  <rect x="450" y="76" width="160" height="20" rx="10"/>
  <text class="ts" x="530" y="90" text-anchor="middle">Telegram · Criminal Pumps bot</text>
</g>

<!-- Arrow T0 → T1 -->
<line x1="358" y1="98" x2="358" y2="112" class="arr" marker-end="url(#arrow)"/>

<!-- TIER 1 label -->
<g class="c-blue">
  <rect x="40" y="116" width="636" height="22" rx="8"/>
  <text class="th" x="358" y="131" text-anchor="middle">Tier 1 — Agentes core 11Mkeys</text>
</g>

<!-- Core agents row -->
<g class="c-gray">
  <rect x="50" y="144" width="110" height="42" rx="6"/>
  <text class="th" x="105" y="160" text-anchor="middle">PM agent</text>
  <text class="ts" x="105" y="176" text-anchor="middle">fases · gate</text>
</g>
<g class="c-gray">
  <rect x="172" y="144" width="110" height="42" rx="6"/>
  <text class="th" x="227" y="160" text-anchor="middle">Research</text>
  <text class="ts" x="227" y="176" text-anchor="middle">info · bench</text>
</g>
<g class="c-gray">
  <rect x="294" y="144" width="110" height="42" rx="6"/>
  <text class="th" x="349" y="160" text-anchor="middle">Code agent</text>
  <text class="ts" x="349" y="176" text-anchor="middle">PRs · fixes</text>
</g>
<g class="c-gray">
  <rect x="416" y="144" width="110" height="42" rx="6"/>
  <text class="th" x="471" y="160" text-anchor="middle">DevOps</text>
  <text class="ts" x="471" y="176" text-anchor="middle">deploy · monitor</text>
</g>

<!-- Watcher -->
<g class="c-teal">
  <rect x="538" y="144" width="130" height="42" rx="6"/>
  <text class="th" x="603" y="160" text-anchor="middle">Watcher agent</text>
  <text class="ts" x="603" y="176" text-anchor="middle">fuentes externas</text>
</g>

<!-- Monkey Advisor - DESTACADO -->
<g class="c-gold">
  <rect x="50" y="196" width="618" height="72" rx="10"/>
  <text class="th" x="359" y="218" text-anchor="middle">🐒 Monkey Advisor agent</text>
  <text class="ts" x="359" y="234" text-anchor="middle">Traduce cada acción técnica a lenguaje claro · explica términos al instante</text>
  <text class="ts" x="359" y="250" text-anchor="middle">Genera docs + esquemas explicativos · responde consultas vía su propio bot de Telegram</text>
  <text class="ts" x="359" y="262" text-anchor="middle">Recibe eventos de todos los agentes · emite resúmenes proactivos y reactivos</text>
</g>

<!-- Bidireccional Monkey ↔ T0 (margen derecho dorado) -->
<path d="M 668 232 L 686 232 L 686 62 L 668 62" fill="none" stroke="#A07800" stroke-width="1.8" stroke-dasharray="5 3" marker-end="url(#arrow)" marker-start="url(#arrow)" opacity="0.8"/>

<!-- Arrow T1 → T2 -->
<line x1="358" y1="268" x2="358" y2="284" class="arr" marker-end="url(#arrow)"/>

<!-- TIER 2 label -->
<g class="c-gray">
  <rect x="40" y="288" width="636" height="20" rx="6"/>
  <text class="th" x="358" y="302" text-anchor="middle">Tier 2 — Sub-agentes por vertical</text>
</g>

<!-- Crypto -->
<g class="c-amber">
  <rect x="40" y="314" width="196" height="126" rx="10"/>
  <text class="th" x="138" y="336" text-anchor="middle">Crypto agent</text>
  <text class="ts" x="138" y="352" text-anchor="middle">CCXT · CEX/DEX</text>
  <text class="ts" x="138" y="368" text-anchor="middle">señales · alerts</text>
  <text class="ts" x="138" y="384" text-anchor="middle">risk management</text>
  <rect x="58" y="396" width="160" height="22" rx="6"/>
  <text class="ts" x="138" y="411" text-anchor="middle">Criminal Pumps</text>
</g>

<!-- Knowledge -->
<g class="c-teal">
  <rect x="252" y="314" width="196" height="126" rx="10"/>
  <text class="th" x="350" y="336" text-anchor="middle">Knowledge agent</text>
  <text class="ts" x="350" y="352" text-anchor="middle">info products</text>
  <text class="ts" x="350" y="368" text-anchor="middle">cursos · contenido</text>
  <text class="ts" x="350" y="384" text-anchor="middle">distribución</text>
  <rect x="270" y="396" width="160" height="22" rx="6"/>
  <text class="ts" x="350" y="411" text-anchor="middle">por definir</text>
</g>

<!-- Ecommerce -->
<g class="c-coral">
  <rect x="464" y="314" width="212" height="126" rx="10"/>
  <text class="th" x="570" y="336" text-anchor="middle">Ecommerce agent</text>
  <text class="ts" x="570" y="352" text-anchor="middle">catálogos · pricing</text>
  <text class="ts" x="570" y="368" text-anchor="middle">conversión · logística</text>
  <text class="ts" x="570" y="384" text-anchor="middle"> </text>
  <rect x="482" y="396" width="178" height="22" rx="6"/>
  <text class="ts" x="571" y="411" text-anchor="middle">por definir</text>
</g>

<!-- Feed arrows T2 → R+I+D -->
<line x1="138" y1="440" x2="192" y2="472" class="arr" marker-end="url(#arrow)" stroke-opacity="0.4"/>
<line x1="350" y1="440" x2="350" y2="472" class="arr" marker-end="url(#arrow)" stroke-opacity="0.4"/>
<line x1="570" y1="440" x2="510" y2="472" class="arr" marker-end="url(#arrow)" stroke-opacity="0.4"/>

<!-- Monkey Advisor → T2 (feed de explicaciones) -->
<path d="M 50 258 L 22 258 L 22 445 L 42 445" fill="none" stroke="#A07800" stroke-width="1.2" stroke-dasharray="3 3" marker-end="url(#arrow)" opacity="0.5"/>

<!-- R+I+D -->
<g class="c-green">
  <rect x="40" y="476" width="636" height="68" rx="12"/>
  <text class="th" x="358" y="500" text-anchor="middle">R+I+D agent</text>
  <text class="ts" x="358" y="518" text-anchor="middle">Absorbe learnings de proyectos + señales externas del Watcher</text>
  <text class="ts" x="358" y="534" text-anchor="middle">Detecta patrones · oportunidades cross-vertical · síntesis continua</text>
</g>

<line x1="358" y1="544" x2="358" y2="558" class="arr" marker-end="url(#arrow)"/>

<!-- Nuevos Proyectos -->
<g class="c-pink">
  <rect x="40" y="562" width="636" height="68" rx="12"/>
  <text class="th" x="358" y="586" text-anchor="middle">Nuevos proyectos agent</text>
  <text class="ts" x="358" y="604" text-anchor="middle">Genera ideas · detecta sinergias entre verticales</text>
  <text class="ts" x="358" y="620" text-anchor="middle">Argumenta y vende ideas a Marce vía Telegram</text>
</g>

<!-- Feedback loop NP → T0 -->
<path d="M 676 596 L 700 596 L 700 62 L 678 62" fill="none" stroke="#534AB7" stroke-width="1.5" marker-end="url(#arrow)" opacity="0.6"/>

<!-- INFRA label -->
<g class="c-gray">
  <rect x="40" y="646" width="636" height="20" rx="6"/>
  <text class="th" x="358" y="660" text-anchor="middle">Infraestructura</text>
</g>

<g class="c-gray"><rect x="50" y="672" width="90" height="42" rx="6"/><text class="th" x="95" y="690" text-anchor="middle">n8n</text><text class="ts" x="95" y="706" text-anchor="middle">flujos</text></g>
<g class="c-gray"><rect x="152" y="672" width="90" height="42" rx="6"/><text class="th" x="197" y="690" text-anchor="middle">Claude API</text><text class="ts" x="197" y="706" text-anchor="middle">LLM core</text></g>
<g class="c-gray"><rect x="254" y="672" width="90" height="42" rx="6"/><text class="th" x="299" y="690" text-anchor="middle">VPS</text><text class="ts" x="299" y="706" text-anchor="middle">Hostinger</text></g>
<g class="c-gray"><rect x="356" y="672" width="90" height="42" rx="6"/><text class="th" x="401" y="690" text-anchor="middle">GitHub</text><text class="ts" x="401" y="706" text-anchor="middle">repos</text></g>
<g class="c-gray"><rect x="458" y="672" width="90" height="42" rx="6"/><text class="th" x="503" y="690" text-anchor="middle">Postgres</text><text class="ts" x="503" y="706" text-anchor="middle">logs + data</text></g>
<g class="c-gold"><rect x="560" y="672" width="116" height="42" rx="6"/><text class="th" x="618" y="690" text-anchor="middle" fill="#6B5000">3 bots</text><text class="ts" x="618" y="706" text-anchor="middle" fill="#A07800">Telegram layer</text></g>

<!-- PIPELINE -->
<g class="c-purple">
  <rect x="40" y="728" width="636" height="58" rx="10"/>
  <text class="th" x="358" y="750" text-anchor="middle">Pipeline de proyectos</text>
</g>
<g class="c-purple"><rect x="52" y="758" width="108" height="22" rx="6"/><text class="ts" x="106" y="773" text-anchor="middle">I+D</text></g>
<line x1="161" y1="769" x2="170" y2="769" class="arr" marker-end="url(#arrow)" stroke-opacity="0.6"/>
<g class="c-purple"><rect x="172" y="758" width="108" height="22" rx="6"/><text class="ts" x="226" y="773" text-anchor="middle">POC</text></g>
<line x1="281" y1="769" x2="290" y2="769" class="arr" marker-end="url(#arrow)" stroke-opacity="0.6"/>
<g class="c-purple"><rect x="292" y="758" width="108" height="22" rx="6"/><text class="ts" x="346" y="773" text-anchor="middle">Desarrollo</text></g>
<line x1="401" y1="769" x2="410" y2="769" class="arr" marker-end="url(#arrow)" stroke-opacity="0.6"/>
<g class="c-purple"><rect x="412" y="758" width="108" height="22" rx="6"/><text class="ts" x="466" y="773" text-anchor="middle">Lanzamiento</text></g>
<line x1="521" y1="769" x2="530" y2="769" class="arr" marker-end="url(#arrow)" stroke-opacity="0.6"/>
<g class="c-purple"><rect x="532" y="758" width="108" height="22" rx="6"/><text class="ts" x="586" y="773" text-anchor="middle">Operación</text></g>

<!-- Monkey → Pipeline (explica cada etapa) -->
<path d="M 668 258 L 710 258 L 710 769 L 642 769" fill="none" stroke="#A07800" stroke-width="1.0" stroke-dasharray="3 3" marker-end="url(#arrow)" opacity="0.35"/>

<!-- Leyenda -->
<rect x="40" y="800" width="636" height="80" rx="8" fill="#FFFDF5" stroke="#A07800" stroke-width="0.5"/>
<text class="th" x="60" y="820" fill="#6B5000">Leyenda de interacciones del Monkey Advisor</text>
<line x1="60" y1="836" x2="100" y2="836" stroke="#A07800" stroke-width="1.8" stroke-dasharray="5 3"/>
<text class="ts" x="108" y="840" fill="#A07800">Bidireccional con Marce (pregunta / responde en cualquier momento)</text>
<line x1="60" y1="856" x2="100" y2="856" stroke="#A07800" stroke-width="1.2" stroke-dasharray="3 3"/>
<text class="ts" x="108" y="860" fill="#A07800">Feed pasivo de todos los agentes (recibe eventos para traducir)</text>
</svg>
